<svg xmlns="http://www.w3.org/2000/svg" viewBox="0 0 329.23 140.8">
 <defs>
  <style>.cls-1{fill:#fff;}</style>
 </defs>
 <title>資產 7</title>
 <g id="圖層_2" data-name="圖層 2">
  <g id="圖層_8" data-name="圖層 8">
   <g id="Desert_01" data-name="Desert 01">
    <path d="M4.79,135.29A2,2,0,0,0,4,135a6.28,6.28,0,0,0-1-.05H.68v5.73h.83v-2.33H3.13A2.61,2.61,0,0,0,5,137.86a1.67,1.67,0,0,0,.51-1.24,1.62,1.62,0,0,0-.19-.78A1.45,1.45,0,0,0,4.79,135.29Zm-.5,2.13a1.85,1.85,0,0,1-1.15.27H1.51v-2H3.12a3.92,3.92,0,0,1,.78.05.94.94,0,0,1,.53.34,1,1,0,0,1,.2.62A.93.93,0,0,1,4.29,137.42Z" class="cls-1"/>
    <path d="M10.35,136.64a2,2,0,0,0-.88-.18A1.8,1.8,0,0,0,8.1,137V135H7.33v5.73H8.1v-2.27a1.85,1.85,0,0,1,.13-.77,1,1,0,0,1,.43-.44,1.35,1.35,0,0,1,.65-.16,1,1,0,0,1,.71.24,1,1,0,0,1,.25.77v2.63H11v-2.63a2.13,2.13,0,0,0-.16-.93A1.12,1.12,0,0,0,10.35,136.64Z" class="cls-1"/>
    <path d="M15,136.45a2.26,2.26,0,0,0-1.44.46,2,2,0,0,0-.71,1.71,2.11,2.11,0,0,0,.59,1.61,2.16,2.16,0,0,0,1.55.56,2.42,2.42,0,0,0,1.1-.25,1.79,1.79,0,0,0,.77-.71,2.53,2.53,0,0,0,.26-1.26,2,2,0,0,0-.6-1.55A2.16,2.16,0,0,0,15,136.45Zm1,3.36a1.36,1.36,0,0,1-1.92,0,2,2,0,0,1,0-2.38,1.36,1.36,0,0,1,1.92,0,1.61,1.61,0,0,1,.38,1.17A1.7,1.7,0,0,1,15.91,139.81Z" class="cls-1"/>
    <path d="M22.3,136.94a1.19,1.19,0,0,0-.52-.35,2.07,2.07,0,0,0-.76-.13,1.69,1.69,0,0,0-1.45.68v-.59h-.7v4.15h.77v-2.27a1.14,1.14,0,0,1,1.21-1.37,1.1,1.1,0,0,1,.54.13.7.7,0,0,1,.32.34,1.74,1.74,0,0,1,.09.64v2.52h.77v-2.55a3.65,3.65,0,0,0,0-.68A1.3,1.3,0,0,0,22.3,136.94Z" class="cls-1"/>
    <path d="M26.53,136.45A2.11,2.11,0,0,0,25,137a2.17,2.17,0,0,0-.59,1.63,2.07,2.07,0,0,0,.59,1.57,2.2,2.2,0,0,0,1.59.56,2.26,2.26,0,0,0,1.31-.35,1.77,1.77,0,0,0,.7-1l-.8-.09a1.35,1.35,0,0,1-.48.65,1.27,1.27,0,0,1-.73.2,1.33,1.33,0,0,1-1-.36,1.51,1.51,0,0,1-.43-1h3.4q0-.13,0-.19A2.12,2.12,0,0,0,28,137,2.05,2.05,0,0,0,26.53,136.45Zm-1.29,1.77a1.23,1.23,0,0,1,.4-.87,1.29,1.29,0,0,1,.9-.32,1.24,1.24,0,0,1,1,.41,1.33,1.33,0,0,1,.29.79Z" class="cls-1"/>
    <rect x="30.64" width="0.88" class="cls-1" y="139.9" height="0.8"/>
    <rect x="30.64" width="0.88" class="cls-1" y="136.55" height="0.8"/>
    <polygon points="36.1 135.99 35.38 135.99 35.38 137.54 33.66 137.54 33.66 138.2 35.38 138.2 35.38 139.77 36.1 139.77 36.1 138.2 37.82 138.2 37.82 137.54 36.1 137.54 36.1 135.99" class="cls-1"/>
    <path d="M42.51,137.59a1.45,1.45,0,0,0,.7-.46,1.09,1.09,0,0,0,.23-.69,1.35,1.35,0,0,0-.5-1.06,2.24,2.24,0,0,0-2.64,0,1.33,1.33,0,0,0-.49,1.05,1.12,1.12,0,0,0,.23.71,1.46,1.46,0,0,0,.71.46,1.58,1.58,0,0,0-.89.51,1.42,1.42,0,0,0-.31.94,1.6,1.6,0,0,0,.57,1.25,2.51,2.51,0,0,0,3,0,1.58,1.58,0,0,0,.57-1.23,1.43,1.43,0,0,0-.3-.91A1.7,1.7,0,0,0,42.51,137.59Zm-1.92-1.19a.8.8,0,0,1,.29-.62,1.07,1.07,0,0,1,.73-.26,1.06,1.06,0,0,1,.73.26.84.84,0,0,1,.29.65.81.81,0,0,1-.29.63,1.06,1.06,0,0,1-.73.26,1.08,1.08,0,0,1-.75-.26A.85.85,0,0,1,40.59,136.4Zm2,3.49a1.32,1.32,0,0,1-.92.32,1.47,1.47,0,0,1-.67-.15,1.06,1.06,0,0,1-.47-.44,1.18,1.18,0,0,1-.16-.58,1.07,1.07,0,0,1,.36-.82,1.29,1.29,0,0,1,.9-.33,1.35,1.35,0,0,1,.93.33,1.08,1.08,0,0,1,.37.84A1.06,1.06,0,0,1,42.55,139.89Z" class="cls-1"/>
    <path d="M48.29,137.59a1.45,1.45,0,0,0,.7-.46,1.09,1.09,0,0,0,.23-.69,1.35,1.35,0,0,0-.5-1.06,2.24,2.24,0,0,0-2.64,0,1.33,1.33,0,0,0-.49,1.05,1.12,1.12,0,0,0,.23.71,1.46,1.46,0,0,0,.71.46,1.58,1.58,0,0,0-.89.51,1.42,1.42,0,0,0-.31.94,1.6,1.6,0,0,0,.57,1.25,2.51,2.51,0,0,0,3,0,1.58,1.58,0,0,0,.57-1.23,1.43,1.43,0,0,0-.3-.91A1.7,1.7,0,0,0,48.29,137.59Zm-1.92-1.19a.8.8,0,0,1,.29-.62,1.07,1.07,0,0,1,.73-.26,1.06,1.06,0,0,1,.73.26.84.84,0,0,1,.29.65.81.81,0,0,1-.29.63,1.06,1.06,0,0,1-.73.26,1.08,1.08,0,0,1-.75-.26A.85.85,0,0,1,46.36,136.4Zm2,3.49a1.32,1.32,0,0,1-.92.32,1.47,1.47,0,0,1-.67-.15,1.06,1.06,0,0,1-.47-.44,1.18,1.18,0,0,1-.16-.58,1.07,1.07,0,0,1,.36-.82,1.29,1.29,0,0,1,.9-.33,1.35,1.35,0,0,1,.93.33,1.08,1.08,0,0,1,.37.84A1.06,1.06,0,0,1,48.32,139.89Z" class="cls-1"/>
    <path d="M53.37,137a2,2,0,0,0-.85.19,1.74,1.74,0,0,0-.68.57,3.38,3.38,0,0,1,.22-1.32,1.62,1.62,0,0,1,.58-.71,1.14,1.14,0,0,1,.65-.19,1.08,1.08,0,0,1,.77.3,1.27,1.27,0,0,1,.29.6l.77-.05a1.56,1.56,0,0,0-.57-1,1.89,1.89,0,0,0-1.22-.38,2,2,0,0,0-1.59.66,3.56,3.56,0,0,0-.67,2.41,3.05,3.05,0,0,0,.61,2.13,2.23,2.23,0,0,0,2.59.4,1.76,1.76,0,0,0,.7-.71,2,2,0,0,0,.26-1,1.77,1.77,0,0,0-.54-1.34A1.84,1.84,0,0,0,53.37,137Zm.72,2.88a1.14,1.14,0,0,1-.84.36,1.28,1.28,0,0,1-.64-.17,1.19,1.19,0,0,1-.47-.51,1.51,1.51,0,0,1-.17-.7,1.17,1.17,0,0,1,.37-.9,1.25,1.25,0,0,1,.89-.34,1.2,1.2,0,0,1,.88.34,1.25,1.25,0,0,1,.35.94A1.33,1.33,0,0,1,54.09,139.86Z" class="cls-1"/>
    <rect x="56.79" width="2.38" class="cls-1" y="138.27" height="0.71"/>
    <path d="M63.79,135.25a2.17,2.17,0,0,0-1.12-.3,2,2,0,0,0-1.42.53,1.84,1.84,0,0,0-.56,1.4,1.79,1.79,0,0,0,.54,1.36,1.94,1.94,0,0,0,2.19.31,1.71,1.71,0,0,0,.63-.54q0,.09,0,.14a3.22,3.22,0,0,1-.12.86,2.22,2.22,0,0,1-.29.67,1.29,1.29,0,0,1-.44.4,1.27,1.27,0,0,1-.63.15,1.05,1.05,0,0,1-.68-.21,1.13,1.13,0,0,1-.36-.69l-.74.06a1.56,1.56,0,0,0,.56,1,1.88,1.88,0,0,0,1.21.37,2.16,2.16,0,0,0,1.21-.34,2.07,2.07,0,0,0,.78-1,4.78,4.78,0,0,0,.26-1.75,3.87,3.87,0,0,0-.26-1.61A1.93,1.93,0,0,0,63.79,135.25Zm-.17,2.54a1.2,1.2,0,0,1-.88.34,1.26,1.26,0,0,1-.9-.34,1.16,1.16,0,0,1-.36-.89,1.34,1.34,0,0,1,.38-1,1.23,1.23,0,0,1,.9-.38,1.16,1.16,0,0,1,.85.36,1.3,1.3,0,0,1,.35,1A1.27,1.27,0,0,1,63.63,137.79Z" class="cls-1"/>
    <path d="M69.41,137.59a1.47,1.47,0,0,0,.65-.48,1.13,1.13,0,0,0,.22-.68,1.32,1.32,0,0,0-.23-.74,1.56,1.56,0,0,0-.66-.55,2.23,2.23,0,0,0-.95-.2,2,2,0,0,0-1.25.39,1.77,1.77,0,0,0-.64,1.1l.77.13a1.25,1.25,0,0,1,.39-.77,1.12,1.12,0,0,1,.75-.26,1.08,1.08,0,0,1,.74.25.82.82,0,0,1,.29.64.78.78,0,0,1-.4.72,1.71,1.71,0,0,1-.89.23h-.12L68,138a2.42,2.42,0,0,1,.55-.08,1.27,1.27,0,0,1,.89.31,1,1,0,0,1,.35.8,1.11,1.11,0,0,1-.38.85,1.32,1.32,0,0,1-.92.34,1.19,1.19,0,0,1-.78-.26,1.5,1.5,0,0,1-.45-.86l-.77.09a1.68,1.68,0,0,0,.63,1.16,2.1,2.1,0,0,0,1.38.45,2.24,2.24,0,0,0,1.52-.52,1.62,1.62,0,0,0,.6-1.27,1.39,1.39,0,0,0-.31-.92A1.49,1.49,0,0,0,69.41,137.59Z" class="cls-1"/>
    <path d="M74.5,137a2,2,0,0,0-.85.19,1.74,1.74,0,0,0-.68.57,3.38,3.38,0,0,1,.22-1.32,1.62,1.62,0,0,1,.58-.71,1.14,1.14,0,0,1,.65-.19,1.08,1.08,0,0,1,.77.3,1.27,1.27,0,0,1,.29.6l.77-.05a1.56,1.56,0,0,0-.57-1,1.89,1.89,0,0,0-1.22-.38,2,2,0,0,0-1.59.66A3.56,3.56,0,0,0,72.2,138a3.05,3.05,0,0,0,.61,2.13,2.23,2.23,0,0,0,2.59.4,1.76,1.76,0,0,0,.7-.71,2,2,0,0,0,.26-1,1.77,1.77,0,0,0-.54-1.34A1.84,1.84,0,0,0,74.5,137Zm.72,2.88a1.14,1.14,0,0,1-.84.36,1.28,1.28,0,0,1-.64-.17,1.19,1.19,0,0,1-.47-.51,1.51,1.51,0,0,1-.17-.7,1.17,1.17,0,0,1,.37-.9,1.25,1.25,0,0,1,.89-.34,1.2,1.2,0,0,1,.88.34,1.25,1.25,0,0,1,.35.94A1.33,1.33,0,0,1,75.22,139.86Z" class="cls-1"/>
    <rect x="77.92" width="2.38" class="cls-1" y="138.27" height="0.71"/>
    <path d="M83.55,135.71a4.74,4.74,0,0,1-1.13.67v.68a5.39,5.39,0,0,0,.81-.36,4,4,0,0,0,.73-.48v4.48h.77v-5.75h-.5A2.72,2.72,0,0,1,83.55,135.71Z" class="cls-1"/>
    <path d="M90.55,137.59a1.45,1.45,0,0,0,.7-.46,1.09,1.09,0,0,0,.23-.69,1.35,1.35,0,0,0-.5-1.06,2.24,2.24,0,0,0-2.64,0,1.33,1.33,0,0,0-.49,1.05,1.12,1.12,0,0,0,.23.71,1.46,1.46,0,0,0,.71.46,1.58,1.58,0,0,0-.89.51,1.42,1.42,0,0,0-.31.94,1.6,1.6,0,0,0,.57,1.25,2.51,2.51,0,0,0,3,0,1.58,1.58,0,0,0,.57-1.23,1.43,1.43,0,0,0-.3-.91A1.7,1.7,0,0,0,90.55,137.59Zm-1.92-1.19a.8.8,0,0,1,.29-.62,1.07,1.07,0,0,1,.73-.26,1.06,1.06,0,0,1,.73.26.84.84,0,0,1,.29.65.81.81,0,0,1-.29.63,1.06,1.06,0,0,1-.73.26,1.08,1.08,0,0,1-.75-.26A.85.85,0,0,1,88.63,136.4Zm2,3.49a1.32,1.32,0,0,1-.92.32,1.47,1.47,0,0,1-.67-.15,1.06,1.06,0,0,1-.47-.44,1.18,1.18,0,0,1-.16-.58,1.07,1.07,0,0,1,.36-.82,1.29,1.29,0,0,1,.9-.33,1.35,1.35,0,0,1,.93.33,1.08,1.08,0,0,1,.37.84A1.06,1.06,0,0,1,90.59,139.89Z" class="cls-1"/>
    <path d="M94.67,139.64q.2-.19.89-.72a12.18,12.18,0,0,0,1.19-1,2.61,2.61,0,0,0,.51-.7,1.58,1.58,0,0,0,.15-.68,1.44,1.44,0,0,0-.53-1.13,2.12,2.12,0,0,0-1.44-.46,2.23,2.23,0,0,0-1.43.42,1.72,1.72,0,0,0-.61,1.23l.79.07a1.09,1.09,0,0,1,.34-.84,1.28,1.28,0,0,1,.89-.3,1.26,1.26,0,0,1,.86.29.9.9,0,0,1,.33.71,1.38,1.38,0,0,1-.36.85,8.25,8.25,0,0,1-1.39,1.21,7.7,7.7,0,0,0-1,.87,2.55,2.55,0,0,0-.51.76,1.14,1.14,0,0,0-.09.49h4.16V140H94.34A2.36,2.36,0,0,1,94.67,139.64Z" class="cls-1"/>
    <rect x="99.06" width="2.38" class="cls-1" y="138.27" height="0.71"/>
    <path d="M105.91,137.59a1.47,1.47,0,0,0,.65-.48,1.13,1.13,0,0,0,.22-.68,1.32,1.32,0,0,0-.23-.74,1.56,1.56,0,0,0-.66-.55,2.23,2.23,0,0,0-.95-.2,2,2,0,0,0-1.25.39,1.77,1.77,0,0,0-.64,1.1l.77.13a1.25,1.25,0,0,1,.39-.77,1.12,1.12,0,0,1,.75-.26,1.08,1.08,0,0,1,.74.25.82.82,0,0,1,.29.64.78.78,0,0,1-.4.72,1.71,1.71,0,0,1-.89.23h-.12l-.09.62a2.42,2.42,0,0,1,.55-.08,1.27,1.27,0,0,1,.89.31,1,1,0,0,1,.35.8,1.11,1.11,0,0,1-.38.85,1.32,1.32,0,0,1-.92.34,1.19,1.19,0,0,1-.78-.26,1.5,1.5,0,0,1-.45-.86l-.77.09a1.68,1.68,0,0,0,.63,1.16,2.1,2.1,0,0,0,1.38.45,2.24,2.24,0,0,0,1.52-.52,1.62,1.62,0,0,0,.6-1.27,1.39,1.39,0,0,0-.31-.92A1.49,1.49,0,0,0,105.91,137.59Z" class="cls-1"/>
    <path d="M110,139.64q.2-.19.89-.72a12.18,12.18,0,0,0,1.19-1,2.61,2.61,0,0,0,.51-.7,1.58,1.58,0,0,0,.15-.68,1.44,1.44,0,0,0-.53-1.13,2.12,2.12,0,0,0-1.44-.46,2.23,2.23,0,0,0-1.43.42,1.72,1.72,0,0,0-.61,1.23l.79.07a1.09,1.09,0,0,1,.34-.84,1.28,1.28,0,0,1,.89-.3,1.26,1.26,0,0,1,.86.29.9.9,0,0,1,.33.71,1.38,1.38,0,0,1-.36.85,8.25,8.25,0,0,1-1.39,1.21,7.7,7.7,0,0,0-1,.87,2.55,2.55,0,0,0-.51.76,1.14,1.14,0,0,0-.09.49h4.16V140H109.7A2.36,2.36,0,0,1,110,139.64Z" class="cls-1"/>
    <path d="M116.77,137a2,2,0,0,0-.85.19,1.74,1.74,0,0,0-.68.57,3.38,3.38,0,0,1,.22-1.32,1.62,1.62,0,0,1,.58-.71,1.14,1.14,0,0,1,.65-.19,1.08,1.08,0,0,1,.77.3,1.27,1.27,0,0,1,.29.6l.77-.05a1.56,1.56,0,0,0-.57-1,1.89,1.89,0,0,0-1.22-.38,2,2,0,0,0-1.59.66,3.56,3.56,0,0,0-.67,2.41,3.05,3.05,0,0,0,.61,2.13,2.23,2.23,0,0,0,2.59.4,1.76,1.76,0,0,0,.7-.71,2,2,0,0,0,.26-1,1.77,1.77,0,0,0-.54-1.34A1.84,1.84,0,0,0,116.77,137Zm.72,2.88a1.14,1.14,0,0,1-.84.36A1.28,1.28,0,0,1,116,140a1.19,1.19,0,0,1-.47-.51,1.51,1.51,0,0,1-.17-.7,1.17,1.17,0,0,1,.37-.9,1.25,1.25,0,0,1,.89-.34,1.2,1.2,0,0,1,.88.34,1.25,1.25,0,0,1,.35.94A1.33,1.33,0,0,1,117.48,139.86Z" class="cls-1"/>
    <path d="M2.5,127.88a2.26,2.26,0,0,0,1.31-.35,1.77,1.77,0,0,0,.7-1l-.8-.09a1.35,1.35,0,0,1-.48.65,1.27,1.27,0,0,1-.73.2,1.33,1.33,0,0,1-1-.36,1.51,1.51,0,0,1-.43-1h3.4q0-.13,0-.19a2.12,2.12,0,0,0-.58-1.59,2.05,2.05,0,0,0-1.5-.57,2.11,2.11,0,0,0-1.54.58,2.17,2.17,0,0,0-.59,1.63,2.07,2.07,0,0,0,.59,1.57A2.2,2.2,0,0,0,2.5,127.88Zm-.93-3.43a1.29,1.29,0,0,1,.9-.32,1.24,1.24,0,0,1,1,.41,1.33,1.33,0,0,1,.29.79H1.16A1.23,1.23,0,0,1,1.57,124.45Z" class="cls-1"/>
    <rect x="6.05" width="2.38" class="cls-1" y="125.36" height="0.71"/>
    <path d="M20.53,127.74a2.94,2.94,0,0,0,.83-.47,1.39,1.39,0,0,0,.15.51h.81a1.47,1.47,0,0,1-.2-.5,9.1,9.1,0,0,1,0-1.24v-.94a3.6,3.6,0,0,0,0-.65,1.06,1.06,0,0,0-.24-.48,1.27,1.27,0,0,0-.54-.31,3,3,0,0,0-.95-.12,3.33,3.33,0,0,0-1,.15,1.5,1.5,0,0,0-.68.42,1.63,1.63,0,0,0-.34.71l.76.09a1,1,0,0,1,.38-.62,1.48,1.48,0,0,1,.81-.17,1.38,1.38,0,0,1,.88.24.73.73,0,0,1,.22.61s0,.09,0,.18a7.71,7.71,0,0,1-1.38.24,5.94,5.94,0,0,0-.69.11,2,2,0,0,0-.56.23,1.19,1.19,0,0,0-.4.4,1.1,1.1,0,0,0,.25,1.41,1.77,1.77,0,0,0,1.16.33A2.6,2.6,0,0,0,20.53,127.74Zm-1.59-1.07a.56.56,0,0,1,.11-.33.66.66,0,0,1,.31-.23A3.14,3.14,0,0,1,20,126a6.15,6.15,0,0,0,1.26-.27V126a1.56,1.56,0,0,1-.12.7,1.15,1.15,0,0,1-.51.49,1.72,1.72,0,0,1-.79.18,1.08,1.08,0,0,1-.69-.19A.58.58,0,0,1,18.94,126.67Z" class="cls-1"/>
    <rect x="24.15" width="0.77" class="cls-1" y="122.06" height="0.81"/>
    <rect x="24.15" width="0.77" class="cls-1" y="123.64" height="4.15"/>
    <rect x="26.97" width="0.77" class="cls-1" y="122.06" height="5.73"/>
    <rect x="30.03" width="0.88" class="cls-1" y="123.64" height="0.8"/>
    <rect x="30.03" width="0.88" class="cls-1" y="126.99" height="0.8"/>
    <path d="M34.36,127.84a3.16,3.16,0,0,0,.58-.06l-.11-.62-.34,0a.56.56,0,0,1-.26-.05.31.31,0,0,1-.13-.14,1.12,1.12,0,0,1,0-.39v-2.43h.78v-.55h-.78v-1.45l-.77.42v1h-.57v.55h.57v2.39a2.3,2.3,0,0,0,.09.83.71.71,0,0,0,.33.32A1.44,1.44,0,0,0,34.36,127.84Z" class="cls-1"/>
    <polygon points="38.33 125.18 40.08 123.64 39.08 123.64 37.25 125.33 37.25 122.06 36.47 122.06 36.47 127.79 37.25 127.79 37.25 126.14 37.79 125.67 39.3 127.79 40.26 127.79 38.33 125.18" class="cls-1"/>
    <path d="M44.72,123.64l-1,2.42a8.88,8.88,0,0,0-.32.95,9.94,9.94,0,0,0-.33-1l-.95-2.4h-.83L43,127.8,43,128a3.27,3.27,0,0,1-.24.52.68.68,0,0,1-.25.22.92.92,0,0,1-.41.08,1.89,1.89,0,0,1-.44-.06l.09.66a1.69,1.69,0,0,0,.5.09,1.2,1.2,0,0,0,.64-.16,1.44,1.44,0,0,0,.47-.51,8,8,0,0,0,.43-.94l1.74-4.22Z" class="cls-1"/>
    <path d="M50.72,126v-.94a3.6,3.6,0,0,0,0-.65,1.06,1.06,0,0,0-.24-.48,1.27,1.27,0,0,0-.54-.31,3,3,0,0,0-.95-.12,3.33,3.33,0,0,0-1,.15,1.5,1.5,0,0,0-.68.42,1.63,1.63,0,0,0-.34.71l.76.09a1,1,0,0,1,.38-.62,1.48,1.48,0,0,1,.81-.17,1.38,1.38,0,0,1,.88.24.73.73,0,0,1,.22.61s0,.09,0,.18a7.71,7.71,0,0,1-1.38.24,5.94,5.94,0,0,0-.69.11,2,2,0,0,0-.56.23,1.19,1.19,0,0,0-.4.4,1.1,1.1,0,0,0,.25,1.41,1.77,1.77,0,0,0,1.16.33,2.6,2.6,0,0,0,.85-.14,2.94,2.94,0,0,0,.83-.47,1.39,1.39,0,0,0,.15.51H51a1.47,1.47,0,0,1-.2-.5A9.1,9.1,0,0,1,50.72,126Zm-.78-.09a1.56,1.56,0,0,1-.12.7,1.15,1.15,0,0,1-.51.49,1.72,1.72,0,0,1-.79.18,1.08,1.08,0,0,1-.69-.19.58.58,0,0,1-.23-.47.56.56,0,0,1,.11-.33.66.66,0,0,1,.31-.23,3.14,3.14,0,0,1,.67-.14,6.15,6.15,0,0,0,1.26-.27Z" class="cls-1"/>
    <path d="M56.23,124a1.19,1.19,0,0,0-.52-.35,2.07,2.07,0,0,0-.76-.13,1.69,1.69,0,0,0-1.45.68v-.59h-.7v4.15h.77v-2.27a1.14,1.14,0,0,1,1.21-1.37,1.1,1.1,0,0,1,.54.13.7.7,0,0,1,.32.34,1.74,1.74,0,0,1,.09.64v2.52h.77v-2.55a3.65,3.65,0,0,0,0-.68A1.3,1.3,0,0,0,56.23,124Z" class="cls-1"/>
    <path d="M62.09,128.6a3.12,3.12,0,0,0,.22-1.37v-3.59h-.71v.5a1.7,1.7,0,0,0-1.33-.59,2,2,0,0,0-1.06.27,1.76,1.76,0,0,0-.69.78,2.54,2.54,0,0,0-.24,1.1,2.23,2.23,0,0,0,.52,1.48,1.79,1.79,0,0,0,1.46.62,1.66,1.66,0,0,0,1.26-.54,4.09,4.09,0,0,1-.06.9,1,1,0,0,1-.4.55,1.48,1.48,0,0,1-.83.2,1.38,1.38,0,0,1-.79-.2.64.64,0,0,1-.26-.46l-.75-.1a1.09,1.09,0,0,0,.49,1,2.35,2.35,0,0,0,1.32.33,2.58,2.58,0,0,0,1.16-.23A1.52,1.52,0,0,0,62.09,128.6Zm-.87-1.77a1.19,1.19,0,0,1-.89.37,1.18,1.18,0,0,1-.89-.37,1.68,1.68,0,0,1-.36-1.19,1.59,1.59,0,0,1,.36-1.13,1.16,1.16,0,0,1,.88-.38,1.2,1.2,0,0,1,.9.39,1.6,1.6,0,0,1,.37,1.15A1.63,1.63,0,0,1,61.22,126.83Z" class="cls-1"/>
    <path d="M64.35,128a1.34,1.34,0,0,1-.12.71.43.43,0,0,1-.35.14,1.69,1.69,0,0,1-.37-.05l-.15.6a2.46,2.46,0,0,0,.61.07,1.06,1.06,0,0,0,.93-.39,1.89,1.89,0,0,0,.22-1.07v-4.37h-.77Z" class="cls-1"/>
    <rect x="64.35" width="0.77" class="cls-1" y="122.06" height="0.82"/>
    <path d="M67.74,129.08A1.89,1.89,0,0,0,68,128v-4.37h-.77V128a1.34,1.34,0,0,1-.12.71.43.43,0,0,1-.35.14,1.69,1.69,0,0,1-.37-.05l-.15.6a2.46,2.46,0,0,0,.61.07A1.06,1.06,0,0,0,67.74,129.08Z" class="cls-1"/>
    <rect x="67.18" width="0.77" class="cls-1" y="122.06" height="0.82"/>
    <path d="M77.28,127.71a2.91,2.91,0,0,1-1.14.84,4.58,4.58,0,0,1-1.89.34,5.34,5.34,0,0,1-1.92-.33,2.68,2.68,0,0,1-1.32-1,2.92,2.92,0,0,1-.46-1.65,3.39,3.39,0,0,1,.46-1.71A3.07,3.07,0,0,1,72.3,123a4,4,0,0,1,1.84-.43,3.76,3.76,0,0,1,1.61.34,2.55,2.55,0,0,1,1.1.91,2.2,2.2,0,0,1,.37,1.22,2.34,2.34,0,0,1-1.06,1.92,1.22,1.22,0,0,1-.6.24.31.31,0,0,1-.21-.08.23.23,0,0,1-.09-.18s0-.24.13-.61l.62-2.62h-.77l-.15.61a1.61,1.61,0,0,0-.58-.54,1.52,1.52,0,0,0-.71-.18,2,2,0,0,0-1,.31,2.47,2.47,0,0,0-.87.94,2.52,2.52,0,0,0-.35,1.24,1.93,1.93,0,0,0,.23.93,1.47,1.47,0,0,0,2,.65,2.34,2.34,0,0,0,.63-.47.93.93,0,0,0,.08.34.56.56,0,0,0,.27.23,1.18,1.18,0,0,0,.48.08A2.37,2.37,0,0,0,77,127a2.77,2.77,0,0,0,.46-3.48,3.08,3.08,0,0,0-1.34-1.18,4.47,4.47,0,0,0-1.91-.4,4.57,4.57,0,0,0-2.34.56,3.75,3.75,0,0,0-1.49,1.62,4,4,0,0,0-.43,1.82,3.58,3.58,0,0,0,.36,1.59,3,3,0,0,0,.85,1,3.84,3.84,0,0,0,1.37.67,6.59,6.59,0,0,0,1.76.22,5.56,5.56,0,0,0,1.77-.25,4.13,4.13,0,0,0,1.27-.67,2.84,2.84,0,0,0,.75-.84ZM74.68,126a2,2,0,0,1-.4.65,1.8,1.8,0,0,1-.51.39,1.15,1.15,0,0,1-.51.13.86.86,0,0,1-.64-.3,1.16,1.16,0,0,1-.28-.83,2.29,2.29,0,0,1,.14-.74,2.22,2.22,0,0,1,.37-.68,1.54,1.54,0,0,1,.47-.41,1.1,1.1,0,0,1,.52-.13,1,1,0,0,1,.71.29,1.12,1.12,0,0,1,.29.82A2.17,2.17,0,0,1,74.68,126Z" class="cls-1"/>
    <path d="M83.34,128.6a3.12,3.12,0,0,0,.22-1.37v-3.59h-.71v.5a1.7,1.7,0,0,0-1.33-.59,2,2,0,0,0-1.06.27,1.76,1.76,0,0,0-.69.78,2.54,2.54,0,0,0-.24,1.1,2.23,2.23,0,0,0,.52,1.48,1.79,1.79,0,0,0,1.46.62,1.66,1.66,0,0,0,1.26-.54,4.09,4.09,0,0,1-.06.9,1,1,0,0,1-.4.55,1.48,1.48,0,0,1-.83.2,1.38,1.38,0,0,1-.79-.2.64.64,0,0,1-.26-.46l-.75-.1a1.09,1.09,0,0,0,.49,1,2.35,2.35,0,0,0,1.32.33,2.58,2.58,0,0,0,1.16-.23A1.52,1.52,0,0,0,83.34,128.6Zm-.87-1.77a1.19,1.19,0,0,1-.89.37,1.18,1.18,0,0,1-.89-.37,1.68,1.68,0,0,1-.36-1.19,1.59,1.59,0,0,1,.36-1.13,1.16,1.16,0,0,1,.88-.38,1.2,1.2,0,0,1,.9.39,1.6,1.6,0,0,1,.37,1.15A1.63,1.63,0,0,1,82.48,126.83Z" class="cls-1"/>
    <path d="M90.38,123.55a1.68,1.68,0,0,0-1.41.73,1,1,0,0,0-.46-.54,1.62,1.62,0,0,0-.83-.19,1.74,1.74,0,0,0-.81.19,1.57,1.57,0,0,0-.57.49v-.58h-.69v4.15h.77v-2.15a2.36,2.36,0,0,1,.12-.87.91.91,0,0,1,.4-.46,1.21,1.21,0,0,1,.6-.16.75.75,0,0,1,.62.23,1.1,1.1,0,0,1,.19.7v2.7h.77v-2.41a1.21,1.21,0,0,1,.32-.93,1.14,1.14,0,0,1,.8-.29.92.92,0,0,1,.46.11.61.61,0,0,1,.27.3,1.75,1.75,0,0,1,.08.61v2.61h.77v-2.85a1.38,1.38,0,0,0-.37-1.05A1.47,1.47,0,0,0,90.38,123.55Z" class="cls-1"/>
    <path d="M15.38,123.55a1.68,1.68,0,0,0-1.41.73,1,1,0,0,0-.46-.54,1.62,1.62,0,0,0-.83-.19,1.74,1.74,0,0,0-.81.19,1.57,1.57,0,0,0-.57.49v-.58h-.69v4.15h.77v-2.15a2.36,2.36,0,0,1,.12-.87.91.91,0,0,1,.4-.46,1.21,1.21,0,0,1,.6-.16.75.75,0,0,1,.62.23,1.1,1.1,0,0,1,.19.7v2.7h.77v-2.41a1.21,1.21,0,0,1,.32-.93,1.14,1.14,0,0,1,.8-.29.92.92,0,0,1,.46.11.61.61,0,0,1,.27.3,1.75,1.75,0,0,1,.08.61v2.61h.77v-2.85a1.38,1.38,0,0,0-.37-1.05A1.47,1.47,0,0,0,15.38,123.55Z" class="cls-1"/>
    <path d="M97.51,126v-.94a3.6,3.6,0,0,0,0-.65,1.06,1.06,0,0,0-.24-.48,1.27,1.27,0,0,0-.54-.31,3,3,0,0,0-.95-.12,3.33,3.33,0,0,0-1,.15,1.5,1.5,0,0,0-.68.42,1.63,1.63,0,0,0-.34.71l.76.09a1,1,0,0,1,.38-.62,1.48,1.48,0,0,1,.81-.17,1.38,1.38,0,0,1,.88.24.73.73,0,0,1,.22.61s0,.09,0,.18a7.71,7.71,0,0,1-1.38.24,5.94,5.94,0,0,0-.69.11,2,2,0,0,0-.56.23,1.19,1.19,0,0,0-.4.4,1.1,1.1,0,0,0,.25,1.41,1.77,1.77,0,0,0,1.16.33,2.6,2.6,0,0,0,.85-.14,2.94,2.94,0,0,0,.83-.47,1.39,1.39,0,0,0,.15.51h.81a1.47,1.47,0,0,1-.2-.5A9.1,9.1,0,0,1,97.51,126Zm-.78-.09a1.56,1.56,0,0,1-.12.7,1.15,1.15,0,0,1-.51.49,1.72,1.72,0,0,1-.79.18,1.08,1.08,0,0,1-.69-.19.58.58,0,0,1-.23-.47.56.56,0,0,1,.11-.33.66.66,0,0,1,.31-.23,3.14,3.14,0,0,1,.67-.14,6.15,6.15,0,0,0,1.26-.27Z" class="cls-1"/>
    <rect x="99.6" width="0.77" class="cls-1" y="123.64" height="4.15"/>
    <rect x="99.6" width="0.77" class="cls-1" y="122.06" height="0.81"/>
    <rect x="102.41" width="0.77" class="cls-1" y="122.06" height="5.73"/>
    <rect x="105.48" width="0.88" class="cls-1" y="126.99" height="0.8"/>
    <path d="M110.43,127.88a2,2,0,0,0,1.26-.4,1.75,1.75,0,0,0,.64-1.12l-.76-.09a1.21,1.21,0,0,1-.39.78,1.15,1.15,0,0,1-.76.25,1.2,1.2,0,0,1-.92-.38,1.74,1.74,0,0,1-.35-1.21,1.69,1.69,0,0,1,.37-1.21,1.26,1.26,0,0,1,.95-.38,1,1,0,0,1,.66.21,1.11,1.11,0,0,1,.38.63l.75-.11a1.54,1.54,0,0,0-.61-1,2,2,0,0,0-1.22-.34,2.39,2.39,0,0,0-1.09.25,1.61,1.61,0,0,0-.75.76,2.66,2.66,0,0,0-.25,1.18,2.13,2.13,0,0,0,.57,1.6A2.06,2.06,0,0,0,110.43,127.88Z" class="cls-1"/>
    <path d="M116.82,127.63a1.79,1.79,0,0,0,.77-.71,2.53,2.53,0,0,0,.26-1.26,2,2,0,0,0-.6-1.55,2.16,2.16,0,0,0-1.54-.56,2.26,2.26,0,0,0-1.44.46,2,2,0,0,0-.71,1.71,2.11,2.11,0,0,0,.59,1.61,2.16,2.16,0,0,0,1.55.56A2.42,2.42,0,0,0,116.82,127.63Zm-2.45-1.91a1.65,1.65,0,0,1,.38-1.19,1.36,1.36,0,0,1,1.92,0,1.61,1.61,0,0,1,.38,1.17,1.7,1.7,0,0,1-.38,1.21,1.36,1.36,0,0,1-1.92,0A1.66,1.66,0,0,1,114.38,125.71Z" class="cls-1"/>
    <path d="M124.42,123.55a1.68,1.68,0,0,0-1.41.73,1,1,0,0,0-.46-.54,1.62,1.62,0,0,0-.83-.19,1.74,1.74,0,0,0-.81.19,1.57,1.57,0,0,0-.57.49v-.58h-.69v4.15h.77v-2.15a2.36,2.36,0,0,1,.12-.87.91.91,0,0,1,.4-.46,1.21,1.21,0,0,1,.6-.16.75.75,0,0,1,.62.23,1.1,1.1,0,0,1,.19.7v2.7h.77v-2.41a1.21,1.21,0,0,1,.32-.93,1.14,1.14,0,0,1,.8-.29.92.92,0,0,1,.46.11.61.61,0,0,1,.27.3,1.75,1.75,0,0,1,.08.61v2.61h.77v-2.85a1.38,1.38,0,0,0-.37-1.05A1.47,1.47,0,0,0,124.42,123.55Z" class="cls-1"/>
    <path d="M1.41,111.87H5l2.84,3.21H9.19L6.42,111.8H9.24v-4.6H.35v7.88H1.41Zm0-3.3H8.15v1.87H1.41Z" class="cls-1"/>
    <polygon points="19.57 113.73 11.73 113.73 11.73 111.85 19.57 111.85 19.57 110.46 11.73 110.46 11.73 108.57 19.57 108.57 19.57 107.2 10.67 107.2 10.67 115.08 19.57 115.08 19.57 113.73" class="cls-1"/>
    <polygon points="21 115.08 29.89 115.08 29.89 110.44 26.03 110.44 26.03 111.76 28.78 111.76 28.78 113.73 22.06 113.73 22.06 108.57 29.89 108.57 29.89 107.2 21 107.2 21 115.08" class="cls-1"/>
    <rect x="31.53" width="1.06" class="cls-1" y="107.25" height="7.83"/>
    <polygon points="43.13 110.44 35.32 110.44 35.32 108.57 43.13 108.57 43.13 107.2 34.23 107.2 34.23 111.85 42.02 111.85 42.02 113.73 34.23 113.73 34.23 115.08 43.13 115.08 43.13 110.44" class="cls-1"/>
    <polygon points="48.46 115.08 49.53 115.08 49.53 108.57 53.45 108.57 53.45 107.2 44.56 107.2 44.56 108.57 48.46 108.57 48.46 115.08" class="cls-1"/>
    <polygon points="63.78 113.73 55.95 113.73 55.95 111.85 63.78 111.85 63.78 110.46 55.95 110.46 55.95 108.57 63.78 108.57 63.78 107.2 54.88 107.2 54.88 115.08 63.78 115.08 63.78 113.73" class="cls-1"/>
    <path d="M66.27,111.87h3.6l2.84,3.21h1.34l-2.77-3.28H74.1v-4.6H65.21v7.88h1.06Zm0-3.3H73v1.87H66.27Z" class="cls-1"/>
    <polygon points="84.43 113.73 76.6 113.73 76.6 111.85 84.43 111.85 84.43 110.46 76.6 110.46 76.6 108.57 84.43 108.57 84.43 107.2 75.54 107.2 75.54 115.08 84.43 115.08 84.43 113.73" class="cls-1"/>
    <path d="M94.75,111.85V107.2H85.86v7.88h5Zm-7.83,1.89v-5.17h6.75v2.67l-3,2.5Z" class="cls-1"/>
    <rect x="102.24" width="1.06" class="cls-1" y="107.25" height="7.83"/>
    <polygon points="113.81 115.08 113.81 107.2 104.94 107.2 104.94 115.08 106 115.08 106 108.53 112.75 108.53 112.75 115.08 113.81 115.08" class="cls-1"/>
    <polygon points="120.21 115.08 120.21 108.57 124.14 108.57 124.14 107.2 115.24 107.2 115.24 108.57 119.15 108.57 119.15 115.08 120.21 115.08" class="cls-1"/>
    <polygon points="125.57 115.08 134.46 115.08 134.46 113.73 126.63 113.73 126.63 111.85 134.46 111.85 134.46 110.46 126.63 110.46 126.63 108.57 134.46 108.57 134.46 107.2 125.57 107.2 125.57 115.08" class="cls-1"/>
    <path d="M135.89,115.08H137v-3.21h3.6l2.84,3.21h1.34L142,111.8h2.82v-4.6h-8.89Zm1.06-6.51h6.75v1.87H137Z" class="cls-1"/>
    <rect x="146.43" width="1.06" class="cls-1" y="107.25" height="7.83"/>
    <path d="M149.13,115.08H158V107.2h-8.89Zm1.06-6.51h6.75v5.17h-6.75Z" class="cls-1"/>
    <path d="M159.46,115.08h1.06v-3.21h3.6l2.84,3.21h1.34l-2.77-3.28h2.82v-4.6h-8.89Zm1.06-6.51h6.75v1.87h-6.75Z" class="cls-1"/>
    <path d="M175.63,115.08h5l3.93-3.23V107.2h-8.89Zm1.06-6.51h6.75v2.67l-3,2.5h-3.74Z" class="cls-1"/>
    <polygon points="185.95 115.08 194.84 115.08 194.84 113.73 187.01 113.73 187.01 111.85 194.84 111.85 194.84 110.46 187.01 110.46 187.01 108.57 194.84 108.57 194.84 107.2 185.95 107.2 185.95 115.08" class="cls-1"/>
    <polygon points="196.28 111.85 204.06 111.85 204.06 113.73 196.28 113.73 196.28 115.08 205.17 115.08 205.17 110.44 197.36 110.44 197.36 108.57 205.17 108.57 205.17 107.2 196.28 107.2 196.28 111.85" class="cls-1"/>
    <rect x="206.81" width="1.06" class="cls-1" y="107.25" height="7.83"/>
    <polygon points="209.51 115.08 218.41 115.08 218.41 110.44 214.55 110.44 214.55 111.76 217.3 111.76 217.3 113.73 210.57 113.73 210.57 108.57 218.41 108.57 218.41 107.2 209.51 107.2 209.51 115.08" class="cls-1"/>
    <polygon points="219.84 115.08 220.9 115.08 220.9 108.53 227.65 108.53 227.65 115.08 228.71 115.08 228.71 107.2 219.84 107.2 219.84 115.08" class="cls-1"/>
    <polygon points="230.14 115.08 239.03 115.08 239.03 113.73 231.2 113.73 231.2 111.85 239.03 111.85 239.03 110.46 231.2 110.46 231.2 108.57 239.03 108.57 239.03 107.2 230.14 107.2 230.14 115.08" class="cls-1"/>
    <path d="M240.47,115.08h1.06v-3.21h3.6l2.84,3.21h1.34l-2.77-3.28h2.82v-4.6h-8.89Zm1.06-6.51h6.75v1.87h-6.75Z" class="cls-1"/>
    <rect x="250.79" width="1.06" class="cls-1" y="113.74" height="2.65"/>
    <polygon points="259.13 108.57 263.03 108.57 263.03 115.08 264.1 115.08 264.1 108.57 268.02 108.57 268.02 107.2 259.13 107.2 259.13 108.57" class="cls-1"/>
    <path d="M269.46,115.1h1.06v-3.25h6.75v3.25h1.09v-7.9h-8.89Zm1.06-6.53h6.75v1.89h-6.75Z" class="cls-1"/>
    <rect x="279.99" width="1.06" class="cls-1" y="107.25" height="7.83"/>
    <polygon points="290.5 113.73 287.63 113.73 287.63 107.2 286.53 107.2 286.53 113.73 283.75 113.73 283.75 107.2 282.69 107.2 282.69 115.08 291.58 115.08 291.58 107.2 290.5 107.2 290.5 113.73" class="cls-1"/>
    <path d="M293,115.1h1.06v-3.25h6.75v3.25h1.09v-7.9H293Zm1.06-6.53h6.75v1.89h-6.75Z" class="cls-1"/>
    <polygon points="303.34 107.2 303.34 115.08 304.4 115.08 304.4 108.53 311.15 108.53 311.15 115.08 312.21 115.08 312.21 107.2 303.34 107.2" class="cls-1"/>
    <path d="M1.41,96.91H5l2.84,3.21H9.19L6.42,96.85H9.24v-4.6H.35v7.88H1.41Zm0-3.3H8.15v1.87H1.41Z" class="cls-1"/>
    <polygon points="19.57 98.78 11.73 98.78 11.73 96.89 19.57 96.89 19.57 95.5 11.73 95.5 11.73 93.62 19.57 93.62 19.57 92.25 10.67 92.25 10.67 100.13 19.57 100.13 19.57 98.78" class="cls-1"/>
    <polygon points="21 100.13 29.89 100.13 29.89 95.48 26.03 95.48 26.03 96.81 28.78 96.81 28.78 98.78 22.06 98.78 22.06 93.62 29.89 93.62 29.89 92.25 21 92.25 21 100.13" class="cls-1"/>
    <rect x="31.53" width="1.06" class="cls-1" y="92.29" height="7.83"/>
    <polygon points="43.13 95.48 35.32 95.48 35.32 93.62 43.13 93.62 43.13 92.25 34.23 92.25 34.23 96.89 42.02 96.89 42.02 98.78 34.23 98.78 34.23 100.13 43.13 100.13 43.13 95.48" class="cls-1"/>
    <polygon points="48.46 100.13 49.53 100.13 49.53 93.62 53.45 93.62 53.45 92.25 44.56 92.25 44.56 93.62 48.46 93.62 48.46 100.13" class="cls-1"/>
    <polygon points="63.78 98.78 55.95 98.78 55.95 96.89 63.78 96.89 63.78 95.5 55.95 95.5 55.95 93.62 63.78 93.62 63.78 92.25 54.88 92.25 54.88 100.13 63.78 100.13 63.78 98.78" class="cls-1"/>
    <path d="M66.27,96.91h3.6l2.84,3.21h1.34l-2.77-3.28H74.1v-4.6H65.21v7.88h1.06Zm0-3.3H73v1.87H66.27Z" class="cls-1"/>
    <polygon points="84.43 98.78 76.6 98.78 76.6 96.89 84.43 96.89 84.43 95.5 76.6 95.5 76.6 93.62 84.43 93.62 84.43 92.25 75.54 92.25 75.54 100.13 84.43 100.13 84.43 98.78" class="cls-1"/>
    <path d="M94.75,96.89V92.25H85.86v7.88h5Zm-7.83,1.89V93.62h6.75v2.67l-3,2.5Z" class="cls-1"/>
    <path d="M103.09,96.89h6.75v3.25h1.09v-7.9H102v7.9h1.06Zm0-3.28h6.75v1.89h-6.75Z" class="cls-1"/>
    <path d="M113.42,96.91H117l2.84,3.21h1.34l-2.77-3.28h2.82v-4.6h-8.89v7.88h1.06Zm0-3.3h6.75v1.87h-6.75Z" class="cls-1"/>
    <polygon points="131.57 98.78 123.74 98.78 123.74 93.62 131.57 93.62 131.57 92.25 122.68 92.25 122.68 100.13 131.57 100.13 131.57 98.78" class="cls-1"/>
    <polygon points="134.07 96.89 140.07 96.89 140.07 100.13 141.16 100.13 141.16 92.29 140.07 92.29 140.07 95.53 134.07 95.53 134.07 92.29 133.01 92.29 133.01 100.13 134.07 100.13 134.07 96.89" class="cls-1"/>
    <rect x="142.8" width="1.06" class="cls-1" y="92.29" height="7.83"/>
    <polygon points="149.41 100.13 150.47 100.13 150.47 93.62 154.4 93.62 154.4 92.25 145.5 92.25 145.5 93.62 149.41 93.62 149.41 100.13" class="cls-1"/>
    <polygon points="164.72 98.78 156.89 98.78 156.89 96.89 164.72 96.89 164.72 95.5 156.89 95.5 156.89 93.62 164.72 93.62 164.72 92.25 155.83 92.25 155.83 100.13 164.72 100.13 164.72 98.78" class="cls-1"/>
    <polygon points="166.16 100.13 175.05 100.13 175.05 98.78 167.22 98.78 167.22 93.62 175.05 93.62 175.05 92.25 166.16 92.25 166.16 100.13" class="cls-1"/>
    <polygon points="176.48 93.62 180.38 93.62 180.38 100.13 181.45 100.13 181.45 93.62 185.37 93.62 185.37 92.25 176.48 92.25 176.48 93.62" class="cls-1"/>
    <rect x="186.81" width="1.06" class="cls-1" y="98.78" height="2.65"/>
    <polygon points="199.05 100.13 200.11 100.13 200.11 93.62 204.04 93.62 204.04 92.25 195.14 92.25 195.14 93.62 199.05 93.62 199.05 100.13" class="cls-1"/>
    <path d="M213.28,100.15h1.09v-7.9h-8.89v7.9h1.06V96.89h6.75Zm-6.75-4.64V93.62h6.75v1.89Z" class="cls-1"/>
    <rect x="216" width="1.06" class="cls-1" y="92.29" height="7.83"/>
    <polygon points="227.6 92.25 226.51 92.25 226.51 98.78 223.65 98.78 223.65 92.25 222.54 92.25 222.54 98.78 219.77 98.78 219.77 92.25 218.71 92.25 218.71 100.13 227.6 100.13 227.6 92.25" class="cls-1"/>
    <path d="M236.84,100.15h1.09v-7.9H229v7.9h1.06V96.89h6.75Zm-6.75-4.64V93.62h6.75v1.89Z" class="cls-1"/>
    <polygon points="247.16 100.13 248.23 100.13 248.23 92.25 239.36 92.25 239.36 100.13 240.42 100.13 240.42 93.57 247.16 93.57 247.16 100.13" class="cls-1"/>
    <path d="M52.43,62l-5.32-9.39h0c-1.8-3.18-3.54-6.3-5.16-9.27S39,37.89,37.82,35.53c2.37-1.18,4.82-2.42,7.29-3.69,5.18-2.66,10.55-5.43,16-8.25l16-8.31C82.26,12.56,87.27,10,91.91,7.74c.18-.09.41-.23.4-.47s-.31-.38-.42-.42a6,6,0,0,0-1.66-.33A20.4,20.4,0,0,0,88,6.45a6.1,6.1,0,0,0-1.88.28C81.55,9.06,76.8,11.55,72,14.14S62.49,19.35,57.64,22,48,27.25,43.22,29.82c-3.19,1.7-6.41,3.36-9.58,4.93,2.88-3.44,5.24-6.28,7.39-8.87,3.05-3.69,6.05-7.4,8.92-11S55.52,7.68,58,4.29c.61-.89.84-1.47.73-1.83s-.28-.59-1-.49a4,4,0,0,0-1.46.58A4.59,4.59,0,0,0,55,3.64c-2.33,2.88-5,6.1-7.92,9.56s-6,7-9.26,10.78l-10,11.45-10,11.48Q13,52.55,8.47,57.76c-3,3.48-5.77,6.73-8.18,9.65a1.5,1.5,0,0,0-.2,1.44A3.93,3.93,0,0,0,1,70.42,5,5,0,0,0,2.7,71.6,3.45,3.45,0,0,0,5,71.76l.07,0c2.9-2.13,5.44-4.15,7.55-6s4.22-3.56,6.34-5.18a1.5,1.5,0,0,0,.46-1.05.86.86,0,0,0-.46-.71,1.35,1.35,0,0,0-1.05,0,3.5,3.5,0,0,0-1.29.8l-2.73,2.36c-.94.82-1.87,1.59-2.75,2.3S9.46,65.51,8.77,66a9.39,9.39,0,0,1-.84.5c1.95-2.67,4.16-5.55,6.59-8.57,2.59-3.23,5.38-6.64,8.27-10.14,2.1-2.54,4.41-5.31,7.06-8.48a2.38,2.38,0,0,0,.44-.06l3.44-1.67,4,7.64q2.31,4.43,4.68,9c1.6,3.11,3.15,6.16,4.58,9.06s2.79,5.71,3.93,8.15c.11.39.51.64,1.2.73a6.73,6.73,0,0,0,.86.05,8.94,8.94,0,0,0,1.18-.08,8,8,0,0,0,2-.54c.66-.28,1-.6,1.14-1l0-.08,0-.07C55.83,67.95,54.19,65.09,52.43,62Z" class="cls-1"/>
    <path d="M120.78,34.65h.3a4.87,4.87,0,0,0,2.54-1,6.42,6.42,0,0,0,.73-.63,3.43,3.43,0,0,0,.65-.87,2.17,2.17,0,0,0,.25-1,1.69,1.69,0,0,0-.45-1.08,2.48,2.48,0,0,0-2.29-.64,4.45,4.45,0,0,0-1.91.71,2.5,2.5,0,0,0-.47.28,4,4,0,0,0-.81.77,3.45,3.45,0,0,0-.61,1.11,1.49,1.49,0,0,0,.21,1.34A2.1,2.1,0,0,0,120.78,34.65Z" class="cls-1"/>
    <path d="M128.94,45.26a1,1,0,0,0-1.28-.14c-.68.58-1.69,1.37-3,2.35s-2.83,2.08-4.48,3.23-3.43,2.36-5.25,3.55-3.61,2.31-5.28,3.29-3.21,1.8-4.54,2.41a9.32,9.32,0,0,1-3,1,.56.56,0,0,1-.69-.76,10.33,10.33,0,0,1,2-3.46c.46-.61,1.51-1.81,3.1-3.54s3.41-3.85,5.36-6.24a9.59,9.59,0,0,0,1.9-3.25,2.16,2.16,0,0,0-.66-2.53,1,1,0,0,0-1,0,6.32,6.32,0,0,0-1.23.78,16.42,16.42,0,0,0-1.43,1.27A19.51,19.51,0,0,0,108,44.86q-.65.83-1.55,1.88l-2.32,1.7c-1.82,1.35-3.74,2.73-5.7,4.11s-3.86,2.64-5.67,3.78a27.16,27.16,0,0,1-4.36,2.34l-1.6.58a10.75,10.75,0,0,1-1.38.4,1.15,1.15,0,0,1-.57,0,1.65,1.65,0,0,1,.32-.52c.8-1,1.56-1.88,2.24-2.61s1.32-1.4,1.92-2,1.16-1.18,1.67-1.72,1-1.14,1.56-1.77c.34-.46.68-.89,1-1.27a1.27,1.27,0,0,0,.36-1.3,8.64,8.64,0,0,0-.36-.93,2.45,2.45,0,0,0-.73-.92,2.22,2.22,0,0,0-1.3-.42,4.3,4.3,0,0,0-2,.58c-2.38,1.2-4.71,2.4-6.93,3.59s-4.4,2.3-6.53,3.35-4.29,2-6.4,2.94A60.52,60.52,0,0,1,63.16,59a19.68,19.68,0,0,1-3.11.75c-.74.1-.9,0-.92-.05s0,0,0-.12a5.43,5.43,0,0,1,1.3-2.32,22.26,22.26,0,0,1,3-2.83,40.58,40.58,0,0,1,4.15-2.93,55.4,55.4,0,0,1,5-2.73,32.66,32.66,0,0,1,5.23-2.29,44.15,44.15,0,0,1,5.07-1.39,31.06,31.06,0,0,1,4.3-.61,13.66,13.66,0,0,1,2.9.06c.16,0,.53,0,.65-.57a2.24,2.24,0,0,0-.1-1.15,3,3,0,0,0-.79-1.19A2.42,2.42,0,0,0,88.18,41a20,20,0,0,0-4.5.35,49.49,49.49,0,0,0-5.92,1.43,61.73,61.73,0,0,0-6.56,2.43,41.14,41.14,0,0,0-6.35,3.43A31.66,31.66,0,0,0,59.55,53a14.93,14.93,0,0,0-3.38,5.31,2.08,2.08,0,0,0,.2,1.87A8.34,8.34,0,0,0,57.76,62a11.1,11.1,0,0,0,1.8,1.48,3.17,3.17,0,0,0,1.6.64h0a5.58,5.58,0,0,0,2.17-.45c.93-.33,2-.79,3.22-1.35s2.54-1.22,4-2,2.9-1.55,4.4-2.36c2.55-1.43,5-2.88,7.26-4.32s4.06-2.63,5.39-3.56a8.57,8.57,0,0,1,1.11-.67,6.65,6.65,0,0,1-.85,1c-.52.51-1.12,1.16-1.78,1.94S84.7,54,84,54.85s-1.44,1.75-2.15,2.63S80.5,59.14,80,59.84a1.33,1.33,0,0,0-.15,1.36,3.37,3.37,0,0,0,.89,1.24,4.74,4.74,0,0,0,1.44.88,2.86,2.86,0,0,0,1.51.22,4.93,4.93,0,0,0,2.17-.19,17.66,17.66,0,0,0,3-1.09,35.31,35.31,0,0,0,3.29-1.76,30.28,30.28,0,0,0,3.21-2.21c.17-.15.61-.5,1.33-1l.88-.66-1.07,1.46a3.92,3.92,0,0,0-.71,2.54,2.27,2.27,0,0,0,.38,1.15A8.36,8.36,0,0,0,97,62.92a6.84,6.84,0,0,0,1.06,1,2.41,2.41,0,0,0,1.15.5,8.08,8.08,0,0,0,1.14.08,11.87,11.87,0,0,0,3.57-.61,31.66,31.66,0,0,0,5.36-2.32,50.79,50.79,0,0,0,5.6-3.54c1.87-1.35,3.71-2.74,5.46-4.12s3.41-2.74,4.94-4.06,2.88-2.47,4-3.44l0,0C129.44,46.16,129.57,45.74,128.94,45.26Z" class="cls-1"/>
    <path d="M229.27,7.74l0,0a6.9,6.9,0,0,0,.3-1.87,23.21,23.21,0,0,0,0-2.73,14.81,14.81,0,0,0-.26-2.31c-.1-.45-.24-.69-.46-.76a.52.52,0,0,0-.51.16c-5.41,4.84-10.79,10-16,15.31s-10.56,10.65-15.9,15.85-10.9,10.21-16.56,14.91A128.24,128.24,0,0,1,162,58.74c-.81.5-1.74,1-2.78,1.6s-2.09,1.07-3.1,1.51a15.1,15.1,0,0,1-2.88.95,3,3,0,0,1-2-.1,1.51,1.51,0,0,1-.66-1.48,10.09,10.09,0,0,1,1.07-3.62,71.85,71.85,0,0,1,5.5-9.59c2.21-3.28,4.69-6.64,7.36-10s5.56-6.71,8.55-10,6-6.53,9-9.64,6-6.14,8.85-9,5.55-5.56,8-8c.24-.25.33-.45.3-.64A.44.44,0,0,0,199,.38a2,2,0,0,0-1.14-.11,7.81,7.81,0,0,0-1.55.39,5.91,5.91,0,0,0-1.48.74c-3.07,2.83-6.26,5.9-9.5,9.13s-6.49,6.62-9.66,10.06-6.3,7-9.27,10.44-5.74,6.94-8.22,10.27-4.67,6.55-6.52,9.57a54.85,54.85,0,0,0-4.28,8.31,5.47,5.47,0,0,0,0,4.05A6.12,6.12,0,0,0,150,66.38a9.06,9.06,0,0,0,4.89,1,14.9,14.9,0,0,0,6.57-2.09,73.25,73.25,0,0,0,9.65-6.49c3.36-2.63,6.86-5.59,10.4-8.78s7.16-6.61,10.78-10.15,7.28-7.17,10.74-10.64,7-7,10.26-10.23c2.66-2.64,5.22-5.1,7.62-7.36-4,5.29-8.19,10.59-12.41,15.77-4.71,5.79-9.52,11.62-14.3,17.34S184.61,56.25,179.74,62s-9.68,11.48-14.41,17.21a2.24,2.24,0,0,0-.26,1.38c0,.61.09,1.31.19,2.09s.25,1.59.42,2.4a14.63,14.63,0,0,0,.62,2.19,6.66,6.66,0,0,0,.73,1.47.72.72,0,0,0,.54.38h0a.47.47,0,0,0,.39-.22c5.07-6.2,10.25-12.81,15.39-19.65s10.37-13.88,15.49-20.87,10.35-14.11,15.36-20.9S224.34,14,229.27,7.74Z" class="cls-1"/>
    <path d="M328.8,45.22c-.42-.43-.8-.59-1.13-.49l-.08,0a51.66,51.66,0,0,1-6.51,5.08c-2.47,1.64-5.14,3.26-7.94,4.8s-5.76,3.06-8.77,4.48l-1.83.85,2.92-2.79c2.45-2.36,4.64-4.42,6.53-6.15a8.12,8.12,0,0,1,.69-.8q.45-.47.87-.94t.78-.91a2.12,2.12,0,0,0,.46-.81,3.1,3.1,0,0,0,0-1.22,4.53,4.53,0,0,0-.34-1.16,3,3,0,0,0-.59-.88,1.12,1.12,0,0,0-.78-.38,6,6,0,0,0-2,.84c-1.06.55-2.38,1.27-3.92,2.13s-3.25,1.84-5.23,3-3.92,2.22-5.9,3.29-4,2.15-5.9,3.15-3.68,1.86-5.28,2.56a29.68,29.68,0,0,1-4,1.48c-1.25.33-1.71.17-1.88,0-.32-.38-.19-1,.39-1.79a18.65,18.65,0,0,1,2.82-3,45,45,0,0,1,4.4-3.37c1.68-1.14,3.37-2.21,5-3.17a31.48,31.48,0,0,1,5.13-2.4,44.11,44.11,0,0,1,5-1.51,26.75,26.75,0,0,1,4.26-.67,13.42,13.42,0,0,1,2.87.06.41.41,0,0,0,.36-.09.72.72,0,0,0,.17-.62,3.5,3.5,0,0,0-.41-1.33,4.32,4.32,0,0,0-1-1.32,2.27,2.27,0,0,0-1.68-.54,32.87,32.87,0,0,0-8.29,1.58c-2.17.73-4.43,1.6-6.73,2.6h-.08a1.25,1.25,0,0,0-.85.3l-.36.28,0,0c-.94.49-2.08,1.1-3.39,1.83a43.48,43.48,0,0,0-4.48,2.87A29.33,29.33,0,0,0,278,53.76,14,14,0,0,0,277,55l-1.74,1.16c-1.55,1-3.08,1.94-4.54,2.73a20.91,20.91,0,0,1-4,1.71c-.58.19-1.21.37-1.88.55a5.88,5.88,0,0,1-1.7.23,1,1,0,0,1-.89-.4c-.08-.14-.15-.51.36-1.49A10.48,10.48,0,0,1,264,57.74c.74-.79,1.62-1.68,2.59-2.65s2-2,3.05-3.12,2-2.19,2.8-3.22a16,16,0,0,0,1.88-2.92,2.54,2.54,0,0,0,.19-2.34c-.38-.7-1.22-1-2.47-.86a15.3,15.3,0,0,0-3.93,1,41.53,41.53,0,0,0-4.25,1.93,35.5,35.5,0,0,0-3.42,2c-1.23.81-2.46,1.65-3.66,2.51l-3.4,2.42-2.89,2.07q-1.28.93-2.12,1.52a20.27,20.27,0,0,1-2.6,1.67l-.48.25q.54-.54,1.22-1.18c.88-.82,1.86-1.75,2.92-2.77l3.24-3.12c1.11-1.07,2.14-2.14,3.06-3.19a32.94,32.94,0,0,0,2.36-3,7.88,7.88,0,0,0,1.25-2.57,2.61,2.61,0,0,0,0-1.51,4.08,4.08,0,0,0-.71-1.32,4.45,4.45,0,0,0-1-.95,3.6,3.6,0,0,0-1.12-.49,2.81,2.81,0,0,0-1.35.09,9.43,9.43,0,0,0-1.62.63,1,1,0,0,0-.58.64.58.58,0,0,0,.13.48,1,1,0,0,0,1.1.36l.85-.17a5.53,5.53,0,0,1,.8-.06c.48.09.62.22.66.28a.49.49,0,0,1,0,.46,3,3,0,0,1-.54.79l-.86,1c-1.46,1.44-2.89,2.88-4.27,4.29l-.82.85-1.24.91c-1.82,1.35-3.74,2.73-5.7,4.11s-3.86,2.64-5.67,3.78A27.16,27.16,0,0,1,233,58.67l-1.6.58a10.74,10.74,0,0,1-1.38.4,1.15,1.15,0,0,1-.57,0,1.65,1.65,0,0,1,.32-.52c.8-1,1.56-1.88,2.24-2.61s1.32-1.4,1.92-2,1.16-1.18,1.67-1.72,1-1.14,1.56-1.77c.34-.46.68-.89,1-1.27a1.27,1.27,0,0,0,.36-1.3,8.64,8.64,0,0,0-.36-.93,2.45,2.45,0,0,0-.73-.92,2.22,2.22,0,0,0-1.3-.42,4.3,4.3,0,0,0-2,.58c-2.38,1.2-4.71,2.4-6.93,3.59s-4.4,2.3-6.53,3.35-4.29,2-6.4,2.94A60.52,60.52,0,0,1,207.76,59a19.68,19.68,0,0,1-3.11.75c-.74.1-.9,0-.92-.05s0,0,0-.12a5.43,5.43,0,0,1,1.3-2.32,22.26,22.26,0,0,1,3-2.83,40.58,40.58,0,0,1,4.15-2.93,55.45,55.45,0,0,1,5-2.73,32.66,32.66,0,0,1,5.23-2.29,44.15,44.15,0,0,1,5.07-1.39,31.06,31.06,0,0,1,4.3-.61,13.68,13.68,0,0,1,2.9.06c.16,0,.53,0,.65-.57a2.24,2.24,0,0,0-.1-1.15,3,3,0,0,0-.79-1.19,2.42,2.42,0,0,0-1.57-.64,20,20,0,0,0-4.5.35,49.46,49.46,0,0,0-5.92,1.43,61.71,61.71,0,0,0-6.56,2.43,41.14,41.14,0,0,0-6.35,3.43A31.66,31.66,0,0,0,204.15,53a14.93,14.93,0,0,0-3.38,5.31,2.08,2.08,0,0,0,.2,1.87A8.34,8.34,0,0,0,202.35,62a11.1,11.1,0,0,0,1.8,1.48,3.17,3.17,0,0,0,1.6.64h0a5.55,5.55,0,0,0,2.17-.45c.93-.33,2-.79,3.22-1.35s2.54-1.22,4-2,2.9-1.55,4.4-2.36c2.55-1.43,5-2.88,7.26-4.32s4.06-2.63,5.39-3.56a8.55,8.55,0,0,1,1.11-.67,6.65,6.65,0,0,1-.85,1c-.52.51-1.12,1.16-1.78,1.94s-1.36,1.6-2.09,2.48-1.44,1.75-2.15,2.63-1.32,1.67-1.83,2.37a1.33,1.33,0,0,0-.15,1.36,3.37,3.37,0,0,0,.89,1.24,4.74,4.74,0,0,0,1.44.88,2.86,2.86,0,0,0,1.51.22,4.93,4.93,0,0,0,2.17-.19,17.66,17.66,0,0,0,3-1.09,35.31,35.31,0,0,0,3.29-1.76q.89-.53,1.73-1.11a1.87,1.87,0,0,0,0,.55,7.41,7.41,0,0,0,.3,1.38,6.45,6.45,0,0,0,.63,1.41,2.67,2.67,0,0,0,.84.94l0,0a1.13,1.13,0,0,0,.67-.06l.72-.25c2.39-1.51,4.34-2.85,5.79-4s2.76-2.12,4-3c.54-.42,1.35-1,2.46-1.8s2.3-1.61,3.62-2.5l4.1-2.74c1.41-.93,2.75-1.75,4-2.44s2.34-1.25,3.25-1.65c1.07-.48,1.53-.47,1.75-.36a.31.31,0,0,1-.06.17,4.46,4.46,0,0,1-.58.78c-.27.3-.59.63-1,1l-1.12,1c-1.66,1.47-3,2.71-4,3.68s-1.9,1.85-2.58,2.61a19.89,19.89,0,0,0-1.75,2.21A28,28,0,0,0,258,58.88a3.62,3.62,0,0,0-.53,2.41,2.92,2.92,0,0,0,1.13,1.78,6.28,6.28,0,0,0,2.32,1.06,12.63,12.63,0,0,0,3.1.36,10,10,0,0,0,3.93-1.13,49.18,49.18,0,0,0,5.15-2.84c.7-.43,1.42-.9,2.22-1.43a3.24,3.24,0,0,0,.28.85,9.17,9.17,0,0,0,1.28,1.94,9.45,9.45,0,0,0,1.7,1.58,3,3,0,0,0,1.57.68h0a5.54,5.54,0,0,0,2.17-.45c.93-.33,2-.79,3.22-1.35s2.54-1.22,4-2,2.9-1.55,4.4-2.36c2.54-1.43,5-2.85,7.38-4.23s4.2-2.54,5.52-3.48a4.31,4.31,0,0,1,1.93-.93,3.63,3.63,0,0,1-.64.61c-2,1.73-4.14,3.68-6.39,5.78s-4.64,4.35-7.05,6.65l-2.13,2c-1.83.76-3.34,1.37-4.76,1.91-2.55,1-5,1.91-7.34,2.77s-4.67,1.7-6.83,2.45-4.19,1.48-6,2.15a1,1,0,0,0-.4,1.27,4.32,4.32,0,0,0,1.11,1.5,15.23,15.23,0,0,0,2,1.57,20.32,20.32,0,0,0,2.43,1.38,18,18,0,0,0,2.37.94,4.61,4.61,0,0,0,1.34.24,2,2,0,0,0,.53-.06l1.64-.41a5.67,5.67,0,0,0,1.9-.91c2.77-2,5.64-4.32,8.54-6.86,2.55-2.23,5.08-4.52,7.76-7l3.57-1.52c3-1.28,5.93-2.65,8.79-4.06s5.62-2.88,8.16-4.35a72,72,0,0,0,6.88-4.5,27.27,27.27,0,0,0,4.88-4.53C329.27,46.16,329.35,45.78,328.8,45.22ZM286.87,69.64h0c-2.71,2.48-5.6,5-8.58,7.54-.24.19-.67.18-1.29,0a10.69,10.69,0,0,1-2-.94,10.49,10.49,0,0,1-1.67-1.2,1.88,1.88,0,0,1-.37-.41L277.27,73l6.48-2.42,3.64-1.39Z" class="cls-1"/>
   </g>
  </g>
 </g>
</svg>
